<svg xmlns="http://www.w3.org/2000/svg" width="1004" height="952" viewBox="0 0 1004 952">
<g>
<path d="M 409.84 735.63 C406.19,738.83 406.18,738.83 394.84,738.81 C382.40,738.80 380.11,738.07 372.66,731.73 L 368.81 728.47 L 368.95 641.23 L 369.09 554.00 L 205.95 554.00 L 202.72 551.01 C200.95,549.37 198.47,547.16 197.21,546.11 C195.95,545.05 194.49,542.70 193.96,540.87 C193.38,538.83 193.10,494.90 193.26,427.19 C193.48,327.83 193.66,316.72 195.08,315.67 C196.78,314.41 198.75,308.42 197.14,309.41 C196.62,309.73 196.79,308.03 197.51,305.63 C202.09,290.42 218.37,269.57 236.00,256.33 C246.76,248.25 265.20,238.76 268.52,239.59 C269.82,239.92 272.13,239.52 273.69,238.69 C275.23,237.87 278.52,236.66 281.00,236.00 C283.48,235.33 286.10,234.30 286.84,233.70 C287.57,233.10 290.04,232.52 292.34,232.41 C296.97,232.19 300.68,231.45 304.49,230.00 C306.10,229.39 392.85,229.02 540.92,228.98 L 774.81 228.93 L 780.06 233.96 C782.95,236.73 785.82,239.00 786.44,239.00 C787.05,239.00 789.35,241.50 791.53,244.57 C793.71,247.63 796.29,251.07 797.25,252.22 C798.86,254.14 799.00,257.78 798.98,296.90 C798.96,336.04 798.81,339.82 797.12,343.50 C794.97,348.21 786.32,356.58 781.73,358.40 C779.13,359.43 737.31,359.65 568.94,359.50 L 359.38 359.33 L 359.44 425.91 L 359.50 492.50 L 362.67 492.26 C364.41,492.12 371.16,490.39 377.67,488.40 L 389.50 484.78 L 529.00 485.51 C605.72,485.91 693.70,486.55 724.50,486.94 C779.08,487.63 780.62,487.71 785.13,489.82 C787.67,491.01 791.36,493.76 793.32,495.93 C794.86,497.63 796.04,498.83 796.95,500.20 C800.01,504.82 800.01,511.48 799.98,546.14 C799.98,548.22 799.98,550.41 799.98,552.70 C799.96,578.44 799.55,601.24 799.06,603.36 C798.08,607.56 794.82,610.81 786.47,615.90 L 781.45 618.97 L 666.60 619.02 C583.53,619.05 551.17,619.37 549.63,620.19 C546.29,621.95 535.07,630.91 518.62,644.94 C510.31,652.04 497.36,662.94 489.87,669.17 C482.37,675.40 465.49,689.52 452.37,700.54 C439.24,711.57 425.12,723.25 421.00,726.51 C416.88,729.77 411.85,733.87 409.84,735.63 ZM 388.00 730.61 C392.47,732.19 392.94,732.21 398.72,730.97 C402.88,730.07 404.97,728.57 413.99,719.97 C419.73,714.48 424.78,710.00 425.21,710.00 C425.65,710.00 428.81,707.32 432.25,704.05 C435.69,700.77 439.93,697.06 441.67,695.80 C443.41,694.53 449.26,689.74 454.67,685.14 C460.08,680.55 465.62,676.07 467.00,675.19 C468.38,674.31 471.30,672.06 473.50,670.19 C478.60,665.85 481.06,663.88 494.50,653.31 C500.55,648.55 508.02,642.15 511.09,639.08 C514.17,636.01 520.60,630.35 525.39,626.50 C530.19,622.65 535.62,618.25 537.47,616.72 C539.33,615.19 543.01,613.21 545.67,612.32 C548.33,611.44 550.95,610.39 551.50,609.98 C554.06,608.11 568.54,607.81 653.49,607.86 C738.87,607.92 774.97,607.10 780.52,604.99 C783.00,604.05 787.50,595.73 786.68,593.60 C786.39,592.86 786.53,590.50 786.98,588.37 C788.12,583.03 789.10,561.17 789.50,531.72 L 789.84 506.95 L 786.66 502.77 C780.41,494.58 784.99,495.24 722.50,493.46 C677.47,492.18 585.49,492.78 552.00,494.58 C548.99,494.74 546.66,494.87 544.33,494.97 C536.08,495.31 527.81,495.26 489.16,495.06 L 488.00 495.05 C462.42,494.92 435.88,495.06 429.00,495.37 C422.12,495.68 410.89,496.19 404.02,496.50 C391.07,497.10 383.16,498.79 377.35,502.22 C374.50,503.90 372.86,504.13 367.22,503.63 C361.42,503.12 359.58,502.88 355.87,502.13 C355.17,501.99 351.75,493.56 350.13,488.00 C348.51,482.45 347.92,382.79 349.43,371.50 C350.21,365.72 352.59,360.00 354.22,360.00 C354.65,360.00 355.00,359.43 355.00,358.74 C355.00,358.05 355.90,356.92 357.00,356.23 C358.33,355.40 359.00,355.35 359.00,356.06 C359.00,356.66 359.68,356.47 360.51,355.64 C362.13,354.01 362.88,353.75 370.50,352.08 C379.33,350.15 398.26,349.82 518.50,349.45 C583.40,349.25 667.55,348.90 705.50,348.66 L 774.50 348.24 L 779.09 345.63 C781.61,344.19 784.17,341.93 784.77,340.61 C786.85,336.05 788.20,310.71 787.84,283.00 C787.44,252.22 787.34,251.76 779.52,243.81 C778.43,242.70 777.53,241.79 776.52,241.04 C771.78,237.53 764.43,237.54 722.32,237.62 L 722.00 237.63 C696.42,237.68 592.25,237.85 490.50,238.02 C384.38,238.20 304.74,238.71 303.71,239.22 C302.72,239.71 298.90,240.75 295.21,241.52 C284.48,243.78 275.84,246.12 271.00,248.10 C268.52,249.11 264.65,250.40 262.39,250.97 C260.13,251.54 256.53,253.19 254.39,254.64 C252.25,256.09 248.65,258.08 246.38,259.05 C240.10,261.75 215.00,287.70 215.00,291.51 C215.00,292.21 213.65,295.52 212.00,298.84 C210.35,302.17 209.00,305.33 209.00,305.88 C209.00,306.42 207.67,309.03 206.05,311.68 C201.80,318.61 200.20,329.66 200.57,349.50 C200.74,358.30 201.18,379.00 201.56,395.50 C201.94,412.00 202.37,430.67 202.51,437.00 C202.66,443.33 203.08,455.02 203.44,463.00 C203.81,470.98 204.27,488.75 204.47,502.50 C204.92,533.76 204.92,533.75 208.37,538.08 L 211.23 541.66 L 271.86 541.35 C305.21,541.18 333.17,541.06 334.00,541.08 C345.19,541.38 353.70,540.65 355.27,539.24 C356.63,538.02 357.32,537.92 358.22,538.82 C358.87,539.47 360.64,540.00 362.15,540.00 C365.24,540.00 373.35,545.08 375.49,548.35 C378.45,552.90 379.10,560.44 378.94,588.46 C378.73,626.25 378.76,629.86 379.45,642.00 C379.78,647.78 380.33,668.39 380.68,687.82 C381.40,727.31 381.57,728.33 388.00,730.61 Z" fill="rgb(34,34,35)"/>
<path d="M 388.00 730.61 C381.57,728.33 381.40,727.31 380.68,687.82 C380.33,668.39 379.78,647.78 379.45,642.00 C378.76,629.86 378.73,626.25 378.94,588.46 C379.10,560.44 378.45,552.90 375.49,548.35 C373.35,545.08 365.24,540.00 362.15,540.00 C360.64,540.00 358.87,539.47 358.22,538.82 C357.32,537.92 356.63,538.02 355.27,539.24 C353.70,540.65 345.19,541.38 334.00,541.08 C333.17,541.06 305.21,541.18 271.86,541.35 L 211.23 541.66 L 208.37 538.08 C204.92,533.75 204.92,533.76 204.47,502.50 C204.27,488.75 203.81,470.98 203.44,463.00 C203.08,455.02 202.66,443.33 202.51,437.00 C202.37,430.67 201.94,412.00 201.56,395.50 C201.18,379.00 200.74,358.30 200.57,349.50 C200.20,329.66 201.80,318.61 206.05,311.68 C207.67,309.03 209.00,306.42 209.00,305.88 C209.00,305.33 210.35,302.17 212.00,298.84 C213.65,295.52 215.00,292.21 215.00,291.51 C215.00,287.70 240.10,261.75 246.38,259.05 C248.65,258.08 252.25,256.09 254.39,254.64 C256.53,253.19 260.13,251.54 262.39,250.97 C264.65,250.40 268.52,249.11 271.00,248.10 C275.84,246.12 284.48,243.78 295.21,241.52 C298.90,240.75 302.72,239.71 303.71,239.22 C304.74,238.71 384.38,238.20 490.50,238.02 C592.25,237.85 696.42,237.68 722.00,237.63 L 722.32 237.62 C764.43,237.54 771.78,237.53 776.52,241.04 C777.53,241.79 778.43,242.70 779.52,243.81 C787.34,251.76 787.44,252.22 787.84,283.00 C788.20,310.71 786.85,336.05 784.77,340.61 C784.17,341.93 781.61,344.19 779.09,345.63 L 774.50 348.24 L 705.50 348.66 C667.55,348.90 583.40,349.25 518.50,349.45 C398.26,349.82 379.33,350.15 370.50,352.08 C362.88,353.75 362.13,354.01 360.51,355.64 C359.68,356.47 359.00,356.66 359.00,356.06 C359.00,355.35 358.33,355.40 357.00,356.23 C355.90,356.92 355.00,358.05 355.00,358.74 C355.00,359.43 354.65,360.00 354.22,360.00 C352.59,360.00 350.21,365.72 349.43,371.50 C347.92,382.79 348.51,482.45 350.13,488.00 C351.75,493.56 355.17,501.99 355.87,502.13 C359.58,502.88 361.42,503.12 367.22,503.63 C372.86,504.13 374.50,503.90 377.35,502.22 C383.16,498.79 391.07,497.10 404.02,496.50 C410.89,496.19 422.12,495.68 429.00,495.37 C435.88,495.06 462.42,494.92 488.00,495.05 L 489.16 495.06 L 489.17 495.06 C527.81,495.26 536.08,495.31 544.33,494.97 C546.66,494.87 548.99,494.74 552.00,494.58 C585.49,492.78 677.47,492.18 722.50,493.46 C784.99,495.24 780.41,494.58 786.66,502.77 L 789.84 506.95 L 789.50 531.72 C789.10,561.17 788.12,583.03 786.98,588.37 C786.53,590.50 786.39,592.86 786.68,593.60 C787.50,595.73 783.00,604.05 780.52,604.99 C774.97,607.10 738.87,607.92 653.49,607.86 C568.54,607.81 554.06,608.11 551.50,609.98 C550.95,610.39 548.33,611.44 545.67,612.32 C543.01,613.21 539.33,615.19 537.47,616.72 C535.62,618.25 530.19,622.65 525.39,626.50 C520.60,630.35 514.17,636.01 511.09,639.08 C508.02,642.15 500.55,648.55 494.50,653.31 C481.06,663.88 478.60,665.85 473.50,670.19 C471.30,672.06 468.38,674.31 467.00,675.19 C465.62,676.07 460.08,680.55 454.67,685.14 C449.26,689.74 443.41,694.53 441.67,695.80 C439.93,697.06 435.69,700.77 432.25,704.05 C428.81,707.32 425.65,710.00 425.21,710.00 C424.78,710.00 419.73,714.48 413.99,719.97 C404.97,728.57 402.88,730.07 398.72,730.97 C392.94,732.21 392.47,732.19 388.00,730.61 ZM 417.03 484.92 L 551.50 485.43 C640.60,485.77 727.67,485.69 745.00,485.26 C764.98,484.76 777.74,484.83 779.91,485.45 C782.74,486.27 787.90,490.33 792.11,494.72 C790.07,492.82 787.21,490.80 785.13,489.82 C780.62,487.71 779.08,487.63 724.50,486.94 C693.70,486.55 605.72,485.91 529.00,485.51 ZM 255.42 244.43 C255.77,244.25 256.11,244.08 256.46,243.90 C270.35,236.87 279.10,233.75 292.71,230.99 C302.31,229.05 307.13,229.01 538.80,228.98 C392.03,229.02 306.09,229.39 304.49,230.00 C300.68,231.45 296.97,232.19 292.34,232.41 C290.04,232.52 287.57,233.10 286.84,233.70 C286.10,234.30 283.48,235.33 281.00,236.00 C278.52,236.66 275.23,237.87 273.69,238.69 C272.13,239.52 269.82,239.92 268.52,239.59 C266.89,239.19 261.63,241.26 255.42,244.43 ZM 396.50 740.80 C393.75,740.71 390.15,740.95 388.50,741.34 C384.42,742.29 378.65,739.43 373.16,733.74 L 368.82 729.24 L 368.82 728.47 L 372.66 731.73 C380.11,738.07 382.40,738.80 394.84,738.81 C400.66,738.82 403.50,738.82 405.37,738.39 C401.35,740.79 399.36,740.90 396.50,740.80 ZM 775.99 230.06 C777.86,230.27 778.63,230.53 779.30,230.83 C784.74,233.26 793.40,242.52 796.53,249.23 L 798.98 254.50 L 798.97 281.96 C798.93,256.75 798.62,253.86 797.25,252.22 C796.29,251.07 793.71,247.63 791.53,244.57 C789.35,241.50 787.05,239.00 786.44,239.00 C785.82,239.00 782.95,236.73 780.06,233.96 ZM 193.66 535.30 C192.66,501.06 192.82,324.59 194.06,317.03 C194.64,313.47 195.70,309.20 196.42,307.53 C196.99,306.22 198.00,303.84 198.91,301.68 C198.36,303.03 197.90,304.35 197.51,305.63 C196.79,308.03 196.62,309.73 197.14,309.41 C198.75,308.42 196.78,314.41 195.08,315.67 C193.66,316.72 193.48,327.83 193.26,427.19 C193.13,482.04 193.29,521.29 193.66,535.30 ZM 798.08 502.37 L 800.00 505.39 L 799.98 535.35 C799.97,514.06 799.76,506.63 798.08,502.37 ZM 411.96 733.83 C414.41,731.79 417.95,728.92 421.00,726.51 C425.12,723.25 439.24,711.57 452.37,700.54 C465.49,689.52 482.37,675.40 489.87,669.17 C482.37,675.40 465.49,689.53 452.37,700.56 C431.29,718.27 419.37,728.24 411.96,733.83 ZM 215.17 276.17 C216.87,274.08 218.57,272.13 220.18,270.43 C222.93,267.53 225.84,264.76 228.91,262.11 C224.02,266.43 219.36,271.22 215.17,276.17 ZM 369.00 611.94 L 369.09 554.00 L 369.09 554.00 ZM 199.56 300.13 L 199.61 300.00 C199.96,299.18 200.39,298.27 200.88,297.31 C200.41,298.26 199.96,299.20 199.56,300.13 Z" fill="rgb(49,49,49)"/>
<path d="M 409.84 735.63 C410.37,735.17 411.10,734.55 411.96,733.83 C419.37,728.24 431.29,718.27 452.37,700.56 C465.49,689.53 482.37,675.40 489.87,669.17 C497.36,662.95 510.30,652.05 518.62,644.95 C510.30,652.05 497.36,662.95 489.87,669.17 C473.00,683.19 424.42,724.29 414.69,732.77 C410.74,736.22 405.92,739.79 404.00,740.71 C399.93,742.63 390.61,743.81 386.41,742.94 C381.43,741.89 375.64,738.27 372.16,734.01 L 368.82 729.92 L 368.82 729.24 L 373.16 733.74 C378.65,739.43 384.42,742.29 388.50,741.34 C390.15,740.95 393.75,740.71 396.50,740.80 C399.36,740.90 401.35,740.79 405.37,738.39 C407.15,737.98 408.06,737.19 409.84,735.63 ZM 369.00 611.94 L 369.08 554.00 L 369.09 554.00 Z" fill="rgb(185,185,185)"/>
<path d="M 0.00 476.00 L 0.00 0.00 L 502.00 0.00 L 1004.00 0.00 L 1004.00 476.00 L 1004.00 952.00 L 502.00 952.00 L 0.00 952.00 L 0.00 476.00 ZM 404.00 740.71 C405.92,739.79 410.74,736.22 414.69,732.77 C424.42,724.29 473.00,683.19 489.87,669.17 C497.37,662.94 510.31,652.04 518.62,644.94 C535.07,630.91 546.29,621.95 549.63,620.19 C551.17,619.37 583.53,619.05 666.60,619.02 L 781.45 618.97 L 786.47 615.90 C794.82,610.81 798.08,607.56 799.06,603.36 C799.55,601.24 799.96,578.33 799.98,552.45 L 800.00 505.39 L 797.17 500.95 C793.38,494.98 784.11,486.66 779.91,485.45 C777.74,484.83 764.98,484.76 745.00,485.26 C727.67,485.69 640.60,485.77 551.50,485.43 L 389.50 484.82 L 377.67 488.42 C371.16,490.40 364.41,492.12 362.67,492.26 L 359.50 492.50 L 359.44 425.91 L 359.38 359.33 L 568.94 359.50 C737.31,359.65 779.13,359.43 781.73,358.40 C786.32,356.58 794.97,348.21 797.12,343.50 C798.81,339.82 798.96,336.06 798.97,297.00 L 798.98 254.50 L 796.53 249.23 C793.40,242.52 784.74,233.26 779.30,230.83 C775.24,229.01 767.78,228.96 538.80,228.98 C307.13,229.01 302.31,229.05 292.71,230.99 C279.10,233.75 270.35,236.87 256.46,243.90 C242.16,251.14 230.13,259.94 220.18,270.43 C212.42,278.61 202.75,292.53 199.61,300.00 C198.58,302.48 197.14,305.86 196.42,307.53 C195.70,309.20 194.64,313.47 194.06,317.03 C192.71,325.31 192.64,536.25 193.98,540.94 C194.50,542.73 195.95,545.05 197.21,546.11 C198.47,547.16 200.95,549.37 202.72,551.01 L 205.95 554.00 L 287.51 554.00 L 369.08 554.00 L 368.95 641.96 L 368.82 729.92 L 372.16 734.01 C375.64,738.27 381.43,741.89 386.41,742.94 C390.61,743.81 399.93,742.63 404.00,740.71 Z" fill="rgb(254,254,252)"/>
</g>
</svg>